<?xml version="1.0" encoding="UTF-8" standalone="no"?>
<!-- Created with Inkscape (http://www.inkscape.org/) -->

<svg
   xmlns:dc="http://purl.org/dc/elements/1.1/"
   xmlns:cc="http://creativecommons.org/ns#"
   xmlns:rdf="http://www.w3.org/1999/02/22-rdf-syntax-ns#"
   xmlns:svg="http://www.w3.org/2000/svg"
   xmlns="http://www.w3.org/2000/svg"
   xmlns:sodipodi="http://sodipodi.sourceforge.net/DTD/sodipodi-0.dtd"
   xmlns:inkscape="http://www.inkscape.org/namespaces/inkscape"
   width="198"
   height="16"
   id="svg2"
   version="1.1"
   inkscape:version="0.47 r22583"
   sodipodi:docname="starts.svg"
   inkscape:export-filename="Z:\home\localhost\wp\wp-content\plugins\speaklike-worldwide-lexicon-translator\wwl.libs\stars.png"
   inkscape:export-xdpi="90"
   inkscape:export-ydpi="90">
  <defs
     id="defs4">
    <inkscape:perspective
       sodipodi:type="inkscape:persp3d"
       inkscape:vp_x="0 : 526.18109 : 1"
       inkscape:vp_y="0 : 1000 : 0"
       inkscape:vp_z="744.09448 : 526.18109 : 1"
       inkscape:persp3d-origin="372.04724 : 350.78739 : 1"
       id="perspective10" />
    <inkscape:perspective
       id="perspective2826"
       inkscape:persp3d-origin="0.5 : 0.33333333 : 1"
       inkscape:vp_z="1 : 0.5 : 1"
       inkscape:vp_y="0 : 1000 : 0"
       inkscape:vp_x="0 : 0.5 : 1"
       sodipodi:type="inkscape:persp3d" />
    <inkscape:perspective
       id="perspective2826-7"
       inkscape:persp3d-origin="0.5 : 0.33333333 : 1"
       inkscape:vp_z="1 : 0.5 : 1"
       inkscape:vp_y="0 : 1000 : 0"
       inkscape:vp_x="0 : 0.5 : 1"
       sodipodi:type="inkscape:persp3d" />
    <inkscape:perspective
       id="perspective2826-0"
       inkscape:persp3d-origin="0.5 : 0.33333333 : 1"
       inkscape:vp_z="1 : 0.5 : 1"
       inkscape:vp_y="0 : 1000 : 0"
       inkscape:vp_x="0 : 0.5 : 1"
       sodipodi:type="inkscape:persp3d" />
    <inkscape:perspective
       id="perspective2826-4"
       inkscape:persp3d-origin="0.5 : 0.33333333 : 1"
       inkscape:vp_z="1 : 0.5 : 1"
       inkscape:vp_y="0 : 1000 : 0"
       inkscape:vp_x="0 : 0.5 : 1"
       sodipodi:type="inkscape:persp3d" />
    <inkscape:perspective
       id="perspective2899"
       inkscape:persp3d-origin="0.5 : 0.33333333 : 1"
       inkscape:vp_z="1 : 0.5 : 1"
       inkscape:vp_y="0 : 1000 : 0"
       inkscape:vp_x="0 : 0.5 : 1"
       sodipodi:type="inkscape:persp3d" />
  </defs>
  <sodipodi:namedview
     id="base"
     pagecolor="#ffffff"
     bordercolor="#666666"
     borderopacity="1.0"
     inkscape:pageopacity="0.0"
     inkscape:pageshadow="2"
     inkscape:zoom="3.959798"
     inkscape:cx="107.22982"
     inkscape:cy="-11.819217"
     inkscape:document-units="px"
     inkscape:current-layer="layer1"
     showgrid="false"
     showguides="true"
     inkscape:guide-bbox="true"
     inkscape:window-width="1400"
     inkscape:window-height="994"
     inkscape:window-x="-4"
     inkscape:window-y="-4"
     inkscape:window-maximized="1">
    <sodipodi:guide
       orientation="0,1"
       position="188.57143,888.92857"
       id="guide2928" />
    <sodipodi:guide
       orientation="1,0"
       position="25.892857,50.178572"
       id="guide3730" />
  </sodipodi:namedview>
  <metadata
     id="metadata7">
    <rdf:RDF>
      <cc:Work
         rdf:about="">
        <dc:format>image/svg+xml</dc:format>
        <dc:type
           rdf:resource="http://purl.org/dc/dcmitype/StillImage" />
        <dc:title></dc:title>
      </cc:Work>
    </rdf:RDF>
  </metadata>
  <g
     inkscape:label="Layer 1"
     inkscape:groupmode="layer"
     id="layer1"
     transform="translate(0,-1036.3622)">
    <g
       id="g2944">
      <path
         transform="matrix(0.041868,0,0,0.041868,7.258486,1035.0805)"
         d="M 48.571422,30.612729 109.93339,154.85539 250.57271,173.22357 151.3728,269.97537 177.36356,409.40739 54.692682,344.96062 -69.883461,412.76616 -46.498331,276.18408 -149.48138,178.65819 -12.357696,158.69259 48.571422,30.612729 z"
         inkscape:randomized="0"
         inkscape:rounded="0"
         inkscape:flatsided="false"
         sodipodi:arg2="-0.97384505"
         sodipodi:arg1="-1.5843802"
         sodipodi:r2="104.07821"
         sodipodi:r1="210.34029"
         sodipodi:cy="240.93361"
         sodipodi:cx="51.42857"
         sodipodi:sides="5"
         id="path2816"
         style="opacity:0.98000004;fill:#ffd700;fill-opacity:0.94117647;fill-rule:evenodd;stroke:none"
         sodipodi:type="star" />
      <path
         transform="matrix(0.041868,0,0,0.041868,25.147377,1035.0805)"
         d="M 48.571422,30.612729 109.93339,154.85539 250.57271,173.22357 151.3728,269.97537 177.36356,409.40739 54.692682,344.96062 -69.883461,412.76616 -46.498331,276.18408 -149.48138,178.65819 -12.357696,158.69259 48.571422,30.612729 z"
         inkscape:randomized="0"
         inkscape:rounded="0"
         inkscape:flatsided="false"
         sodipodi:arg2="-0.97384505"
         sodipodi:arg1="-1.5843802"
         sodipodi:r2="104.07821"
         sodipodi:r1="210.34029"
         sodipodi:cy="240.93361"
         sodipodi:cx="51.42857"
         sodipodi:sides="5"
         id="path2816-1"
         style="opacity:0.98000004;fill:#ffd700;fill-opacity:0.94117647;fill-rule:evenodd;stroke:none"
         sodipodi:type="star" />
      <path
         transform="matrix(0.041868,0,0,0.041868,43.036269,1035.0805)"
         d="M 48.571422,30.612729 109.93339,154.85539 250.57271,173.22357 151.3728,269.97537 177.36356,409.40739 54.692682,344.96062 -69.883461,412.76616 -46.498331,276.18408 -149.48138,178.65819 -12.357696,158.69259 48.571422,30.612729 z"
         inkscape:randomized="0"
         inkscape:rounded="0"
         inkscape:flatsided="false"
         sodipodi:arg2="-0.97384505"
         sodipodi:arg1="-1.5843802"
         sodipodi:r2="104.07821"
         sodipodi:r1="210.34029"
         sodipodi:cy="240.93361"
         sodipodi:cx="51.42857"
         sodipodi:sides="5"
         id="path2816-4"
         style="opacity:0.98000004;fill:#ffd700;fill-opacity:0.94117647;fill-rule:evenodd;stroke:none"
         sodipodi:type="star" />
      <path
         transform="matrix(0.041868,0,0,0.041868,60.92516,1035.0805)"
         d="M 48.571422,30.612729 109.93339,154.85539 250.57271,173.22357 151.3728,269.97537 177.36356,409.40739 54.692682,344.96062 -69.883461,412.76616 -46.498331,276.18408 -149.48138,178.65819 -12.357696,158.69259 48.571422,30.612729 z"
         inkscape:randomized="0"
         inkscape:rounded="0"
         inkscape:flatsided="false"
         sodipodi:arg2="-0.97384505"
         sodipodi:arg1="-1.5843802"
         sodipodi:r2="104.07821"
         sodipodi:r1="210.34029"
         sodipodi:cy="240.93361"
         sodipodi:cx="51.42857"
         sodipodi:sides="5"
         id="path2816-9"
         style="opacity:0.98000004;fill:#ffd700;fill-opacity:0.94117647;fill-rule:evenodd;stroke:none"
         sodipodi:type="star" />
      <path
         transform="matrix(0.041868,0,0,0.041868,78.814052,1035.0805)"
         d="M 48.571422,30.612729 109.93339,154.85539 250.57271,173.22357 151.3728,269.97537 177.36356,409.40739 54.692682,344.96062 -69.883461,412.76616 -46.498331,276.18408 -149.48138,178.65819 -12.357696,158.69259 48.571422,30.612729 z"
         inkscape:randomized="0"
         inkscape:rounded="0"
         inkscape:flatsided="false"
         sodipodi:arg2="-0.97384505"
         sodipodi:arg1="-1.5843802"
         sodipodi:r2="104.07821"
         sodipodi:r1="210.34029"
         sodipodi:cy="240.93361"
         sodipodi:cx="51.42857"
         sodipodi:sides="5"
         id="path2816-8"
         style="opacity:0.98000004;fill:#ffd700;fill-opacity:0.94117647;fill-rule:evenodd;stroke:none"
         sodipodi:type="star" />
      <path
         transform="matrix(0.041868,0,0,0.041868,96.702946,1035.0805)"
         d="M 48.571422,30.612729 109.93339,154.85539 250.57271,173.22357 151.3728,269.97537 177.36356,409.40739 54.692682,344.96062 -69.883461,412.76616 -46.498331,276.18408 -149.48138,178.65819 -12.357696,158.69259 48.571422,30.612729 z"
         inkscape:randomized="0"
         inkscape:rounded="0"
         inkscape:flatsided="false"
         sodipodi:arg2="-0.97384505"
         sodipodi:arg1="-1.5843802"
         sodipodi:r2="104.07821"
         sodipodi:r1="210.34029"
         sodipodi:cy="240.93361"
         sodipodi:cx="51.42857"
         sodipodi:sides="5"
         id="path2816-2"
         style="opacity:0.98000004;fill:#d3d3d3;fill-opacity:0.94117647;fill-rule:evenodd;stroke:none"
         sodipodi:type="star" />
      <path
         transform="matrix(0.041868,0,0,0.041868,114.59183,1035.0805)"
         d="M 48.571422,30.612729 109.93339,154.85539 250.57271,173.22357 151.3728,269.97537 177.36356,409.40739 54.692682,344.96062 -69.883461,412.76616 -46.498331,276.18408 -149.48138,178.65819 -12.357696,158.69259 48.571422,30.612729 z"
         inkscape:randomized="0"
         inkscape:rounded="0"
         inkscape:flatsided="false"
         sodipodi:arg2="-0.97384505"
         sodipodi:arg1="-1.5843802"
         sodipodi:r2="104.07821"
         sodipodi:r1="210.34029"
         sodipodi:cy="240.93361"
         sodipodi:cx="51.42857"
         sodipodi:sides="5"
         id="path2816-1-4"
         style="opacity:0.98000004;fill:#d3d3d3;fill-opacity:0.94117647;fill-rule:evenodd;stroke:none"
         sodipodi:type="star" />
      <path
         transform="matrix(0.041868,0,0,0.041868,132.48072,1035.0805)"
         d="M 48.571422,30.612729 109.93339,154.85539 250.57271,173.22357 151.3728,269.97537 177.36356,409.40739 54.692682,344.96062 -69.883461,412.76616 -46.498331,276.18408 -149.48138,178.65819 -12.357696,158.69259 48.571422,30.612729 z"
         inkscape:randomized="0"
         inkscape:rounded="0"
         inkscape:flatsided="false"
         sodipodi:arg2="-0.97384505"
         sodipodi:arg1="-1.5843802"
         sodipodi:r2="104.07821"
         sodipodi:r1="210.34029"
         sodipodi:cy="240.93361"
         sodipodi:cx="51.42857"
         sodipodi:sides="5"
         id="path2816-4-5"
         style="opacity:0.98000004;fill:#d3d3d3;fill-opacity:0.94117647;fill-rule:evenodd;stroke:none"
         sodipodi:type="star" />
      <path
         transform="matrix(0.041868,0,0,0.041868,150.36961,1035.0805)"
         d="M 48.571422,30.612729 109.93339,154.85539 250.57271,173.22357 151.3728,269.97537 177.36356,409.40739 54.692682,344.96062 -69.883461,412.76616 -46.498331,276.18408 -149.48138,178.65819 -12.357696,158.69259 48.571422,30.612729 z"
         inkscape:randomized="0"
         inkscape:rounded="0"
         inkscape:flatsided="false"
         sodipodi:arg2="-0.97384505"
         sodipodi:arg1="-1.5843802"
         sodipodi:r2="104.07821"
         sodipodi:r1="210.34029"
         sodipodi:cy="240.93361"
         sodipodi:cx="51.42857"
         sodipodi:sides="5"
         id="path2816-9-5"
         style="opacity:0.98000004;fill:#d3d3d3;fill-opacity:0.94117647;fill-rule:evenodd;stroke:none"
         sodipodi:type="star" />
      <path
         transform="matrix(0.041868,0,0,0.041868,168.2585,1035.0805)"
         d="M 48.571422,30.612729 109.93339,154.85539 250.57271,173.22357 151.3728,269.97537 177.36356,409.40739 54.692682,344.96062 -69.883461,412.76616 -46.498331,276.18408 -149.48138,178.65819 -12.357696,158.69259 48.571422,30.612729 z"
         inkscape:randomized="0"
         inkscape:rounded="0"
         inkscape:flatsided="false"
         sodipodi:arg2="-0.97384505"
         sodipodi:arg1="-1.5843802"
         sodipodi:r2="104.07821"
         sodipodi:r1="210.34029"
         sodipodi:cy="240.93361"
         sodipodi:cx="51.42857"
         sodipodi:sides="5"
         id="path2816-8-1"
         style="opacity:0.98000004;fill:#d3d3d3;fill-opacity:0.94117647;fill-rule:evenodd;stroke:none"
         sodipodi:type="star" />
    </g>
    <g
       id="g3736"
       transform="matrix(0.56745873,0.56745873,-0.56745873,0.56745873,739.15411,434.82758)">
      <path
         transform="translate(0,1036.3622)"
         d="m 61.07143,-14.535714 c 0,4.8324914 -3.917508,8.7499999 -8.75,8.7499999 -4.832491,0 -8.75,-3.9175085 -8.75,-8.7499999 0,-4.832492 3.917509,-8.75 8.75,-8.75 4.832492,0 8.75,3.917508 8.75,8.75 z"
         sodipodi:ry="8.75"
         sodipodi:rx="8.75"
         sodipodi:cy="-14.535714"
         sodipodi:cx="52.32143"
         id="path2956"
         style="opacity:0.98000004;fill:none;stroke:#ff0000;stroke-width:2.4375;stroke-miterlimit:4;stroke-opacity:1;stroke-dasharray:none"
         sodipodi:type="arc" />
      <path
         transform="translate(0,1036.3622)"
         id="path3734"
         d="m 52.321429,-23.464286 0,17.5000002"
         style="fill:none;stroke:#ff0000;stroke-width:2.4375;stroke-linecap:butt;stroke-linejoin:miter;stroke-miterlimit:4;stroke-opacity:1;stroke-dasharray:none" />
    </g>
  </g>
</svg>
